<svg id="Icon_Google" data-name="Icon Google" xmlns="http://www.w3.org/2000/svg" width="23" height="23" viewBox="0 0 23 23">
  <path id="Path_337" data-name="Path 337" d="M21.73,0H1.269A1.269,1.269,0,0,0,0,1.27V21.731A1.269,1.269,0,0,0,1.27,23H21.73A1.269,1.269,0,0,0,23,21.731h0V1.269A1.269,1.269,0,0,0,21.73,0Zm0,0" fill="#fff"/>
  <path id="Path_338" data-name="Path 338" d="M213.295,96V87.494h2.868l.43-3.33h-3.3V82.043c0-.962.267-1.617,1.646-1.617h1.748v-2.97a23.5,23.5,0,0,0-2.562-.131c-2.535,0-4.27,1.547-4.27,4.389v2.451H207v3.33h2.857V96Zm0,0" transform="translate(-197.383 -73.002)" fill="#4267b2"/>
</svg>
