<svg xmlns="http://www.w3.org/2000/svg" width="23" height="23" viewBox="0 0 23 23">
  <g id="github" transform="translate(0)">
    <path id="Path_1363" data-name="Path 1363" d="M23,11.5a11.5,11.5,0,0,1-9.728,11.364q-.187.029-.376.052A11.469,11.469,0,0,1,11.664,23h-.329a11.47,11.47,0,0,1-1.232-.083q-.189-.023-.376-.052A11.5,11.5,0,1,1,23,11.5Z" transform="translate(0)" fill="#24292f"/>
    <g id="Group_1315" data-name="Group 1315" transform="translate(0)">
      <path id="Path_1364" data-name="Path 1364" d="M23,11.5a11.564,11.564,0,0,1-.071,1.282c-.005.047-.01.094-.016.141q-.044.358-.11.709-.013.07-.027.138a11.514,11.514,0,0,1-7.634,8.641c-.583.113-.79-.245-.79-.552,0-.379.013-1.617.013-3.156a2.75,2.75,0,0,0-.78-2.13c1.992-.222,4.062-.859,4.884-3.211.016-.046.032-.093.047-.14q.069-.215.123-.448c.011-.046.022-.093.031-.141a8.4,8.4,0,0,0,.166-1.734,4.442,4.442,0,0,0-1.184-3.087,4.124,4.124,0,0,0-.113-3.043s-.964-.309-3.159,1.179a10.9,10.9,0,0,0-5.759,0C6.424,4.46,5.458,4.769,5.458,4.769a4.134,4.134,0,0,0-.111,3.043A4.452,4.452,0,0,0,4.162,10.9a8.364,8.364,0,0,0,.166,1.733c.01.048.02.095.031.141q.055.234.124.449c.015.047.031.094.047.14.821,2.347,2.886,2.994,4.872,3.219a2.449,2.449,0,0,0-.73,1.538,2.448,2.448,0,0,1-3.346-.956,2.418,2.418,0,0,0-1.763-1.185s-1.122-.015-.078.7A3.049,3.049,0,0,1,4.76,18.36s.675,2.053,3.874,1.357c.005.961.015,1.867.015,2.141,0,.3-.211.66-.786.553A11.516,11.516,0,0,1,.224,13.77h0c-.009-.046-.018-.092-.026-.138q-.066-.351-.11-.709c-.006-.047-.011-.094-.016-.141A11.5,11.5,0,1,1,23,11.5Z" fill="#fff"/>
      <path id="Path_1365" data-name="Path 1365" d="M90.306,363.24c-.083-.039-.173-.023-.2.036s.02.135.1.173.172.023.2-.035S90.39,363.278,90.306,363.24Z" transform="translate(-86.048 -346.903)" fill="#222123"/>
      <path id="Path_1366" data-name="Path 1366" d="M100.867,372.109c-.076-.08-.18-.1-.236-.053a.176.176,0,0,0,.033.239c.073.08.18.1.235.054S100.942,372.19,100.867,372.109Z" transform="translate(-96.078 -355.318)" fill="#222123"/>
      <path id="Path_1367" data-name="Path 1367" d="M110.841,385.23c-.072-.1-.186-.146-.257-.1s-.072.172,0,.274.187.148.257.1S110.911,385.334,110.841,385.23Z" transform="translate(-105.564 -367.814)" fill="#222123"/>
      <path id="Path_1368" data-name="Path 1368" d="M122.8,399.751c-.1-.094-.234-.114-.3-.044a.222.222,0,0,0,.065.294c.1.095.233.114.3.044S122.9,399.844,122.8,399.751Z" transform="translate(-116.966 -381.717)" fill="#222123"/>
      <path id="Path_1369" data-name="Path 1369" d="M139.91,410.806c-.132-.041-.262,0-.289.093s.059.2.189.236.26,0,.288-.093S140.04,410.845,139.91,410.806Z" transform="translate(-133.345 -392.342)" fill="#222123"/>
      <path id="Path_1370" data-name="Path 1370" d="M160.523,414.185c-.138,0-.246.08-.246.176s.113.171.25.167.248-.08.244-.175S160.659,414.183,160.523,414.185Z" transform="translate(-153.077 -395.584)" fill="#222123"/>
      <path id="Path_1371" data-name="Path 1371" d="M180.348,411.806c-.017-.094-.14-.15-.275-.126s-.231.12-.214.215.141.149.274.125S180.364,411.9,180.348,411.806Z" transform="translate(-171.778 -393.186)" fill="#222123"/>
    </g>
  </g>
</svg>
