<svg id="Icon_Google" data-name="Icon Google" xmlns="http://www.w3.org/2000/svg" width="23" height="23" viewBox="0 0 23 23">
  <path id="Path_333" data-name="Path 333" d="M5.1,145.956l-.8,2.989-2.926.062a11.52,11.52,0,0,1-.085-10.739h0l2.605.478,1.141,2.589a6.863,6.863,0,0,0,.065,4.621Z" transform="translate(0 -132.057)" fill="#fff"/>
  <path id="Path_334" data-name="Path 334" d="M272.674,208.176a11.5,11.5,0,0,1-4.1,11.116h0l-3.281-.167-.464-2.9a6.854,6.854,0,0,0,2.949-3.5h-6.149v-4.549h11.046Z" transform="translate(-249.875 -198.824)" fill="#fff"/>
  <path id="Path_335" data-name="Path 335" d="M47.837,315.977h0a11.5,11.5,0,0,1-17.329-3.518l3.727-3.051a6.839,6.839,0,0,0,9.856,3.5Z" transform="translate(-29.138 -295.51)" fill="#fff"/>
  <path id="Path_336" data-name="Path 336" d="M46.179,2.648,42.453,5.7A6.839,6.839,0,0,0,32.371,9.278L28.625,6.211h0A11.5,11.5,0,0,1,46.179,2.648Z" transform="translate(-27.338)" fill="#fff"/>
</svg>
