<svg xmlns="http://www.w3.org/2000/svg" width="744.727" height="594.419" viewBox="0 0 744.727 594.419">
  <g id="Group_1325" data-name="Group 1325" transform="translate(-976.301 -199.836)">
    <g id="undraw_teaching_f1cm" transform="translate(976.301 199.836)">
      <rect id="Rectangle_293" data-name="Rectangle 293" width="67.441" height="20.389" rx="7.43" transform="translate(152.032 101.945)" fill="#6c63ff" opacity="0.1"/>
      <rect id="Rectangle_294" data-name="Rectangle 294" width="67.441" height="20.389" rx="7.43" transform="translate(222.609 122.334)" fill="#6c63ff" opacity="0.1"/>
      <rect id="Rectangle_295" data-name="Rectangle 295" width="67.441" height="20.389" rx="7.43" transform="translate(293.187 142.723)" fill="#6c63ff" opacity="0.1"/>
      <rect id="Rectangle_296" data-name="Rectangle 296" width="67.441" height="20.389" rx="7.43" transform="translate(152.032 71.362)" fill="#6c63ff" opacity="0.1"/>
      <rect id="Rectangle_297" data-name="Rectangle 297" width="67.441" height="20.389" rx="7.43" transform="translate(222.609 91.751)" fill="#6c63ff" opacity="0.1"/>
      <rect id="Rectangle_298" data-name="Rectangle 298" width="67.441" height="20.389" rx="7.43" transform="translate(293.187 112.14)" fill="#6c63ff" opacity="0.1"/>
      <rect id="Rectangle_299" data-name="Rectangle 299" width="67.441" height="20.389" rx="7.43" transform="translate(371.606 101.945)" fill="#6c63ff" opacity="0.1"/>
      <rect id="Rectangle_300" data-name="Rectangle 300" width="67.441" height="20.389" rx="7.43" transform="translate(442.184 122.334)" fill="#6c63ff" opacity="0.1"/>
      <rect id="Rectangle_301" data-name="Rectangle 301" width="67.441" height="20.389" rx="7.43" transform="translate(512.761 142.723)" fill="#6c63ff" opacity="0.1"/>
      <rect id="Rectangle_302" data-name="Rectangle 302" width="67.441" height="20.389" rx="7.43" transform="translate(371.606 71.362)" fill="#6c63ff" opacity="0.1"/>
      <rect id="Rectangle_303" data-name="Rectangle 303" width="67.441" height="20.389" rx="7.43" transform="translate(442.184 91.751)" fill="#6c63ff" opacity="0.1"/>
      <rect id="Rectangle_304" data-name="Rectangle 304" width="67.441" height="20.389" rx="7.43" transform="translate(512.761 112.14)" fill="#6c63ff" opacity="0.1"/>
      <rect id="Rectangle_305" data-name="Rectangle 305" width="67.441" height="20.389" rx="7.43" transform="translate(152.032 30.584)" fill="#6c63ff" opacity="0.1"/>
      <rect id="Rectangle_306" data-name="Rectangle 306" width="67.441" height="20.389" rx="7.43" transform="translate(222.609 50.973)" fill="#6c63ff" opacity="0.1"/>
      <rect id="Rectangle_307" data-name="Rectangle 307" width="67.441" height="20.389" rx="7.43" transform="translate(293.187 71.362)" fill="#6c63ff" opacity="0.1"/>
      <rect id="Rectangle_308" data-name="Rectangle 308" width="67.441" height="20.389" rx="7.43" transform="translate(152.032)" fill="#6c63ff" opacity="0.1"/>
      <rect id="Rectangle_309" data-name="Rectangle 309" width="67.441" height="20.389" rx="7.43" transform="translate(222.609 20.389)" fill="#6c63ff" opacity="0.1"/>
      <rect id="Rectangle_310" data-name="Rectangle 310" width="67.441" height="20.389" rx="7.43" transform="translate(293.187 40.778)" fill="#6c63ff" opacity="0.1"/>
      <rect id="Rectangle_311" data-name="Rectangle 311" width="67.441" height="20.389" rx="7.43" transform="translate(371.606 30.584)" fill="#6c63ff" opacity="0.1"/>
      <rect id="Rectangle_312" data-name="Rectangle 312" width="67.441" height="20.389" rx="7.43" transform="translate(442.184 50.973)" fill="#6c63ff" opacity="0.1"/>
      <rect id="Rectangle_313" data-name="Rectangle 313" width="67.441" height="20.389" rx="7.43" transform="translate(512.761 71.362)" fill="#6c63ff" opacity="0.1"/>
      <rect id="Rectangle_314" data-name="Rectangle 314" width="67.441" height="20.389" rx="7.43" transform="translate(371.606)" fill="#6c63ff" opacity="0.1"/>
      <rect id="Rectangle_315" data-name="Rectangle 315" width="67.441" height="20.389" rx="7.43" transform="translate(442.184 20.389)" fill="#6c63ff" opacity="0.1"/>
      <rect id="Rectangle_316" data-name="Rectangle 316" width="67.441" height="20.389" rx="7.43" transform="translate(512.761 40.778)" fill="#6c63ff" opacity="0.1"/>
      <rect id="Rectangle_317" data-name="Rectangle 317" width="67.441" height="20.389" rx="7.43" transform="translate(152.032 465.027)" fill="#6c63ff" opacity="0.1"/>
      <rect id="Rectangle_318" data-name="Rectangle 318" width="67.441" height="20.389" rx="7.43" transform="translate(222.609 485.416)" fill="#6c63ff" opacity="0.1"/>
      <rect id="Rectangle_319" data-name="Rectangle 319" width="67.441" height="20.389" rx="7.43" transform="translate(293.187 505.805)" fill="#6c63ff" opacity="0.1"/>
      <rect id="Rectangle_320" data-name="Rectangle 320" width="67.441" height="20.389" rx="7.43" transform="translate(152.032 434.444)" fill="#6c63ff" opacity="0.1"/>
      <rect id="Rectangle_321" data-name="Rectangle 321" width="67.441" height="20.389" rx="7.43" transform="translate(222.609 454.833)" fill="#6c63ff" opacity="0.1"/>
      <rect id="Rectangle_322" data-name="Rectangle 322" width="67.441" height="20.389" rx="7.43" transform="translate(293.187 475.222)" fill="#6c63ff" opacity="0.1"/>
      <rect id="Rectangle_323" data-name="Rectangle 323" width="67.441" height="20.389" rx="7.43" transform="translate(371.606 465.027)" fill="#6c63ff" opacity="0.1"/>
      <rect id="Rectangle_324" data-name="Rectangle 324" width="67.441" height="20.389" rx="7.43" transform="translate(442.184 485.416)" fill="#6c63ff" opacity="0.1"/>
      <rect id="Rectangle_325" data-name="Rectangle 325" width="67.441" height="20.389" rx="7.43" transform="translate(512.761 505.805)" fill="#6c63ff" opacity="0.1"/>
      <rect id="Rectangle_326" data-name="Rectangle 326" width="67.441" height="20.389" rx="7.43" transform="translate(371.606 434.444)" fill="#6c63ff" opacity="0.1"/>
      <rect id="Rectangle_327" data-name="Rectangle 327" width="67.441" height="20.389" rx="7.43" transform="translate(442.184 454.833)" fill="#6c63ff" opacity="0.1"/>
      <rect id="Rectangle_328" data-name="Rectangle 328" width="67.441" height="20.389" rx="7.43" transform="translate(512.761 475.222)" fill="#6c63ff" opacity="0.1"/>
      <rect id="Rectangle_329" data-name="Rectangle 329" width="67.441" height="20.389" rx="7.43" transform="translate(152.032 393.666)" fill="#6c63ff" opacity="0.1"/>
      <rect id="Rectangle_330" data-name="Rectangle 330" width="67.441" height="20.389" rx="7.43" transform="translate(222.609 414.055)" fill="#6c63ff" opacity="0.1"/>
      <rect id="Rectangle_331" data-name="Rectangle 331" width="67.441" height="20.389" rx="7.43" transform="translate(293.187 434.444)" fill="#6c63ff" opacity="0.1"/>
      <rect id="Rectangle_332" data-name="Rectangle 332" width="67.441" height="20.389" rx="7.43" transform="translate(152.032 363.082)" fill="#6c63ff" opacity="0.1"/>
      <rect id="Rectangle_333" data-name="Rectangle 333" width="67.441" height="20.389" rx="7.43" transform="translate(222.609 383.471)" fill="#6c63ff" opacity="0.1"/>
      <rect id="Rectangle_334" data-name="Rectangle 334" width="67.441" height="20.389" rx="7.43" transform="translate(293.187 403.86)" fill="#6c63ff" opacity="0.1"/>
      <rect id="Rectangle_335" data-name="Rectangle 335" width="67.441" height="20.389" rx="7.43" transform="translate(371.606 393.666)" fill="#6c63ff" opacity="0.1"/>
      <rect id="Rectangle_336" data-name="Rectangle 336" width="67.441" height="20.389" rx="7.43" transform="translate(442.184 414.055)" fill="#6c63ff" opacity="0.1"/>
      <rect id="Rectangle_337" data-name="Rectangle 337" width="67.441" height="20.389" rx="7.43" transform="translate(512.761 434.444)" fill="#6c63ff" opacity="0.1"/>
      <rect id="Rectangle_338" data-name="Rectangle 338" width="67.441" height="20.389" rx="7.43" transform="translate(371.606 363.082)" fill="#6c63ff" opacity="0.1"/>
      <rect id="Rectangle_339" data-name="Rectangle 339" width="67.441" height="20.389" rx="7.43" transform="translate(442.184 383.471)" fill="#6c63ff" opacity="0.1"/>
      <rect id="Rectangle_340" data-name="Rectangle 340" width="67.441" height="20.389" rx="7.43" transform="translate(512.761 403.86)" fill="#6c63ff" opacity="0.1"/>
      <ellipse id="Ellipse_66" data-name="Ellipse 66" cx="343.869" cy="28.231" rx="343.869" ry="28.231" transform="translate(34.403 537.957)" fill="#6c63ff" opacity="0.1"/>
      <path id="Path_1376" data-name="Path 1376" d="M192.2,255.276c32.426,14.053,51.059,43.131,51.059,43.131s-33.948,6.274-66.382-7.771S125.82,247.5,125.82,247.5,159.768,241.223,192.2,255.276Z" transform="translate(-125.82 -108.789)" fill="#5765f1"/>
      <path id="Path_1377" data-name="Path 1377" d="M334.828,182.31c10.03-16.468,27.11-24.31,27.11-24.31s.784,18.774-9.214,35.195-27.117,24.255-27.117,24.255S324.79,198.684,334.828,182.31Z" transform="translate(-168.931 -89.775)" fill="#5765f1"/>
      <path id="Path_1378" data-name="Path 1378" d="M242.535,197.628c7.175,25.612,26.953,42.472,26.953,42.472s8.148-24.679.973-50.3S243.5,147.33,243.5,147.33,235.352,172.009,242.535,197.628Z" transform="translate(-150.369 -87.472)" fill="#46455b"/>
      <rect id="Rectangle_341" data-name="Rectangle 341" width="571.678" height="286.231" rx="7.21" transform="translate(93.705 108.775)" fill="#242937"/>
      <path id="Path_1379" data-name="Path 1379" d="M118.87,482H690.548v11.6a5.654,5.654,0,0,1-5.654,5.654H124.524a5.654,5.654,0,0,1-5.654-5.654Z" transform="translate(-25.653 -104.018)" opacity="0.1"/>
      <rect id="Rectangle_342" data-name="Rectangle 342" width="42.347" height="21.173" rx="2.5" transform="translate(148.895 356.809)" fill="#5765f1"/>
      <rect id="Rectangle_343" data-name="Rectangle 343" width="29.015" height="3.137" rx="1.568" transform="translate(203.004 374.845)" fill="#5765f1"/>
      <g id="Michel" transform="translate(503.407 176.147)">
        <path id="Path_1396" data-name="Path 1396" d="M778.778,766.929c-1.976,1.239-4.235,1.937-6.274,3.027s-4.023,2.729-4.6,4.987a3.136,3.136,0,0,0,.1,2.133,4.14,4.14,0,0,0,2.2,1.741,33.32,33.32,0,0,0,26.357.3,34.722,34.722,0,0,1,4.548-1.8,29.553,29.553,0,0,1,5.827-.6,44.783,44.783,0,0,0,6.124-.784,5.388,5.388,0,0,0,2.776-1.153,5.153,5.153,0,0,0,1.247-3,24.663,24.663,0,0,0-3.921-17.472,5.9,5.9,0,0,0-1.71-1.811,6.6,6.6,0,0,0-2.721-.729c-3.921-.478-8.03-1.357-11.99-1.451-2.839-.063-4.266,1.286-6.273,3.239C786.314,757.706,783.891,763.737,778.778,766.929Z" transform="translate(-767.762 -393.747)" fill="#323444"/>
        <path id="Path_1397" data-name="Path 1397" d="M855.373,766.245c0,3.842.463,7.912,2.792,10.979a14.5,14.5,0,0,0,3.811,3.333c4.925,3.137,11.449,4.29,16.641,1.631a4.94,4.94,0,0,0,2.07-1.741c.784-1.365.369-3.066-.07-4.572L873.1,749.84c-4.854.745-11.99,1.27-16.3,3.733C853.671,755.353,855.373,762.811,855.373,766.245Z" transform="translate(-786.569 -393.644)" fill="#323444"/>
        <path id="Path_1398" data-name="Path 1398" d="M775.133,564.383c-.455,1.435-2.1,2.1-3,3.309-1.059,1.419-.949,3.388-.565,5.113a13.519,13.519,0,0,0,3.443,6.783,8.132,8.132,0,0,0,7.058,2.4,5.881,5.881,0,0,0,4.791-5.278,9.991,9.991,0,0,0-.737-3.4l-5.348-15.464a.585.585,0,0,0-.965-.423c-1.263.6-3.8,1.223-4.533,2.533S775.666,562.963,775.133,564.383Z" transform="translate(-768.524 -352.094)" fill="#fbb3b2"/>
        <path id="Path_1399" data-name="Path 1399" d="M773,561.815c1.953-.306,3.662-1.451,5.489-2.2s4.117-1.043,5.654.212c.439.361.863.855,1.435.847a56.138,56.138,0,0,0-3.513-11.167.871.871,0,0,0-.306-.431.886.886,0,0,0-.667,0l-5.278,1.38c-1.953.51-2.18.353-2.031,2.274C773.823,553.581,774.263,561.815,773,561.815Z" transform="translate(-768.892 -350.303)" fill="#323444"/>
        <path id="Path_1400" data-name="Path 1400" d="M771.392,422.855a7.434,7.434,0,0,0-.784,4.133,140.506,140.506,0,0,0,1.1,20.789c.243,1.647.549,3.294.706,4.956a57.167,57.167,0,0,1,.11,6.956l-.784,30.191c-.094,3.694-.282,7.662-2.564,10.563a5.05,5.05,0,0,0-.918,3.349c.6,7.575,1.851,15.088,3.1,22.577a13.951,13.951,0,0,1,12.657.6,139.32,139.32,0,0,0,6.5-38.426c.18-6.423-.094-12.884.894-19.228,1.655-10.681.98-21.636-.235-32.379-.384-3.4-1.2-6.909-3.38-9.544a14.468,14.468,0,0,0-7.842-4.517C777.046,422.117,774.45,422.9,771.392,422.855Z" transform="translate(-767.865 -323.012)" fill="#5b5583"/>
        <path id="Path_1401" data-name="Path 1401" d="M771.392,422.855a7.434,7.434,0,0,0-.784,4.133,140.506,140.506,0,0,0,1.1,20.789c.243,1.647.549,3.294.706,4.956a57.167,57.167,0,0,1,.11,6.956l-.784,30.191c-.094,3.694-.282,7.662-2.564,10.563a5.05,5.05,0,0,0-.918,3.349c.6,7.575,1.851,15.088,3.1,22.577a13.951,13.951,0,0,1,12.657.6,139.32,139.32,0,0,0,6.5-38.426c.18-6.423-.094-12.884.894-19.228,1.655-10.681.98-21.636-.235-32.379-.384-3.4-1.2-6.909-3.38-9.544a14.468,14.468,0,0,0-7.842-4.517C777.046,422.117,774.45,422.9,771.392,422.855Z" transform="translate(-767.865 -323.012)" opacity="0.1"/>
        <path id="Path_1402" data-name="Path 1402" d="M783.774,531.683a138.5,138.5,0,0,0,8.25,80.176,21.743,21.743,0,0,1,1.913,5.928c.431,3.843-1.341,7.536-2.352,11.253-2.353,8.454-1,17.456.51,26.106q.941,5.411,1.937,10.814c.651,3.513,1.278,7.332-.353,10.516,1.4,5.85,2.235,11.645,3.639,17.5a3.325,3.325,0,0,1,.133,1.435,4.227,4.227,0,0,1-1.435,1.921,8.579,8.579,0,0,0-2.188,8.211c3.584-2.572,8.579-1.67,12.673,0s8.124,3.921,12.547,3.921c-.643-5.191-1.263-10.641.651-15.511,1.114-2.823,3.074-5.489,3.019-8.508-.055-2.705-1.71-5.121-2.109-7.795a19.73,19.73,0,0,1,.188-4.987c1.051-9.6-.141-19.291-1.333-28.874a17.25,17.25,0,0,0-1.317-5.489c-.557-1.129-1.388-2.212-1.372-3.474,0-1.466,1.184-2.659,1.623-4.054.784-2.572-.659-6.07,1.513-7.662,5.725-4.2,3.529-14.241,3.4-21.338q-.149-9.183-.784-18.35a78.162,78.162,0,0,1,4.329,31.634c-.251,3.513-.714,7.207.659,10.453,1.051,2.494,3.137,4.548,3.7,7.191a30.1,30.1,0,0,1,.18,4.98c.078,1.663.643,3.474,2.078,4.313.11,7.56.784,15.645.9,23.2a57.241,57.241,0,0,0,.941,11.528,14.692,14.692,0,0,1,.58,3.717,15.533,15.533,0,0,1-1.239,4.572,26.216,26.216,0,0,0,3.921,24.192c1.851-3.286,5.709-5.027,9.473-5.3s7.481.674,11.128,1.631a21.793,21.793,0,0,1,2.6-13.253,10.848,10.848,0,0,0,1.372-2.949c.424-1.992-.565-3.976-1.1-5.944-.87-3.137-.565-6.517-.361-9.795a154.985,154.985,0,0,0-1.451-32.873,27.847,27.847,0,0,0-1.5-6.274c-.282-.721-.627-1.412-.863-2.141a16.877,16.877,0,0,1-.627-4.015l-.9-12.547c-.635-8.791,2.251-17.472,4.266-26.051.9-3.842,1.882-7.677,2.486-11.583.823-5.317.957-10.751,2.164-16,1.082-4.705,3.035-9.293,3.443-14.116.627-7.473-2.478-14.7-5.489-21.55-1.255-2.823-6-2.541-9.05-3.043-21.636-3.552-44.425-3.576-64.829,4.431a16.132,16.132,0,0,0-5.576,3.85Z" transform="translate(-770.664 -344.285)" fill="#3c354c"/>
        <path id="Path_1403" data-name="Path 1403" d="M803.492,355.32l2.4,9.332a24.937,24.937,0,0,1,1.074,6.6,4.87,4.87,0,0,1-.526,2.353,5.608,5.608,0,0,1-1.49,1.521c-1.639,1.247-2.776,4.156-4.65,5.019.964,1.678,2.3.588,4.039,1.427,3.066,1.49,5.874,3.631,9.2,4.368,3.137.69,6.43.039,9.544-.784,4.415-1.2,8.806-2.855,12.359-5.748s5.576-5.45,5.56-10.022c-3.921.463-7.411-3.5-9.144-7.058a19.178,19.178,0,0,1-1.317-4.227l-2.1-9.246c-2.29.5-4.156,2.141-6.344,3a23.032,23.032,0,0,1-7.207,1.043,77.631,77.631,0,0,0-12.829,1.662c-.58.118-1.31.486-1.168,1.051" transform="translate(-774.784 -307.108)" fill="#fbb3b2"/>
        <path id="Path_1404" data-name="Path 1404" d="M803.492,355.32l2.4,9.332a24.937,24.937,0,0,1,1.074,6.6,4.87,4.87,0,0,1-.526,2.353,5.608,5.608,0,0,1-1.49,1.521c-1.639,1.247-2.776,4.156-4.65,5.019.964,1.678,2.3.588,4.039,1.427,3.066,1.49,5.874,3.631,9.2,4.368,3.137.69,6.43.039,9.544-.784,4.415-1.2,8.806-2.855,12.359-5.748s5.576-5.45,5.56-10.022c-3.921.463-7.411-3.5-9.144-7.058a19.178,19.178,0,0,1-1.317-4.227l-2.1-9.246c-2.29.5-4.156,2.141-6.344,3a23.032,23.032,0,0,1-7.207,1.043,77.631,77.631,0,0,0-12.829,1.662c-.58.118-1.31.486-1.168,1.051" transform="translate(-774.784 -307.108)" opacity="0.1"/>
        <circle id="Ellipse_67" data-name="Ellipse 67" cx="20.765" cy="20.765" r="20.765" transform="translate(18.247 11.825)" fill="#fbb3b2"/>
        <path id="Path_1405" data-name="Path 1405" d="M818.164,376.773a18.824,18.824,0,0,1,4.705-6.274c2.925-2.564,6.924-4.642,7.614-8.469l6.336,7.379a3.41,3.41,0,0,1,.784,1.208,3.043,3.043,0,0,1-.6,2.439c-1.568,2.5-4.039,4.29-6.375,6.1a193.666,193.666,0,0,0-15.362,13.551,1.569,1.569,0,0,1-.823.5,1.482,1.482,0,0,1-.855-.243,35.671,35.671,0,0,1-10.955-8.908c-.227-.274-.51-.588-.878-.565a1.129,1.129,0,0,0-.588.306c-2.109,1.725-4.415,3.788-7.12,3.521,3.505-2.517,5.489-6.721,6.226-10.979a20.737,20.737,0,0,1,.894-4.29,4.478,4.478,0,0,1,3.059-2.9c-1.71,2.611-.541,6.313,1.756,8.422a17.315,17.315,0,0,0,7.779,3.772C816.431,381.847,817.215,378.827,818.164,376.773Z" transform="translate(-773.435 -309.953)" fill="#323444"/>
        <path id="Path_1406" data-name="Path 1406" d="M787.664,533.143c2.956.729,5.756,1.968,8.626,2.886a41.226,41.226,0,0,0,16.194,1.7,8.744,8.744,0,0,0,4.705-1.5c.369-.3.706-.651,1.1-.925a7.68,7.68,0,0,1,2.109-.87c7.191-2.251,13.214-7.1,19.056-11.857.188-.157.4-.353.384-.6a.784.784,0,0,0-.235-.447L836.527,518c-8.061,1.372-16.319.855-24.5.651a35.562,35.562,0,0,0-5.035.133c-1.615.188-3.207.6-4.8.941-6.046,1.317-12.226,1.819-18.35,2.682a2.832,2.832,0,0,0-1.215.376,2.737,2.737,0,0,0-.651.721l-2.149,3.019a9.5,9.5,0,0,0-1.8,3.458c-.5,2.353.549,3.137,2.549,2.831A18.617,18.617,0,0,1,787.664,533.143Z" transform="translate(-769.95 -343.612)" fill="#323444"/>
        <path id="Path_1407" data-name="Path 1407" d="M810.168,391.165a38.2,38.2,0,0,0-8.085-6.313,11.458,11.458,0,0,0-3.921-1.568,4.893,4.893,0,0,0-4.015.988c-.7.62-1.137,1.482-1.812,2.133a9.012,9.012,0,0,1-2.87,1.623,50.911,50.911,0,0,0-10.085,5.748A23.132,23.132,0,0,0,774.809,398c-3.552,4.548-4.086,10.736-3.992,16.507.071,4.015,3.921,7,6.572,10a73.69,73.69,0,0,1,6.728,9.41c1.427,2.258,2.917,4.705,2.737,7.395-.149,2.2-1.435,4.274-1.231,6.47.071.784.321,1.506.392,2.266.141,1.568-.478,3.137-.635,4.705-.212,2.219.51,4.423.549,6.658a21.18,21.18,0,0,1-.58,4.54c-1.506,7.168-3.4,14.374-3.011,21.691l-4.344.784a3.67,3.67,0,0,1-.839,5.858c6.783,2.266,14.115,1.121,21.307,1.114,5.952,0,11.881.784,17.825.674s12.077-1.184,16.978-4.548c1.333-.91,2.556-1.976,3.96-2.768a19.534,19.534,0,0,1,6-1.96,59.52,59.52,0,0,1,11.763-1.051c1.929,0,4.031.078,5.568-1.082,1.694-1.286,2.125-3.615,2.353-5.725.227-2.227.369-4.462.408-6.7a28.88,28.88,0,0,0-.275-5.207,34.1,34.1,0,0,0-.917-3.733l-2.956-10.414c-1.223-4.3.478-9.01.839-13.465.086-1.051.1-2.274-.706-2.949-.29-.243-.69-.408-.784-.784a1.342,1.342,0,0,1,.188-1.051c1.568-3.137,3.921-5.9,6.07-8.736a178.509,178.509,0,0,0,10.038-15.425,49.631,49.631,0,0,0-13.284-29.705,14.374,14.374,0,0,0-5.56-4.1,16.468,16.468,0,0,0-4.423-.714c-6.148-.416-12.547-.784-17.9-3.874a3.4,3.4,0,0,0-1.278-.541c-1.184-.133-2.047,1.035-2.815,1.96-1.976,2.353-4.885,3.7-7.442,5.434C817.336,382.171,813.611,386.625,810.168,391.165Z" transform="translate(-768.419 -312.002)" fill="#5b5583"/>
        <path id="Path_1408" data-name="Path 1408" d="M895.693,422.82c1.223,3.874,1.106,8.014,1.506,12.053a46.892,46.892,0,0,0,1.278,7.222,11.529,11.529,0,0,0,1.49,3.678,16.182,16.182,0,0,1,2.164,3.043,7.348,7.348,0,0,1,.321,2.447l.094,5.411a19.458,19.458,0,0,1-1.278,8.422l-3.38,10.281c-1.827,5.568-3.7,11.222-7,16.068a4.634,4.634,0,0,1-2.015,1.89,9.793,9.793,0,0,1-2.031.314,5.223,5.223,0,0,0-4.305,5.074,11.914,11.914,0,0,0-2.894-2.956l-6.878-5.489a29.4,29.4,0,0,0-7.661-4.964,20.773,20.773,0,0,0,14.445-17.456,7.843,7.843,0,0,1,.784-3.435c.572-.925,1.631-1.631,1.709-2.721.094-1.372-1.459-2.408-1.459-3.78,0-.91.674-1.663.972-2.517a6.321,6.321,0,0,0,0-3.223l-.949-5.27a4.021,4.021,0,0,0-.47-1.506,9.724,9.724,0,0,0-1.176-1.239c-1.631-1.827-.91-4.705,0-6.956a66.477,66.477,0,0,1,8.015-14.061,48.134,48.134,0,0,0,3.192-4.564c.831-1.443,1.019-3.443,1.9-4.705C893.2,416.844,894.729,419.769,895.693,422.82Z" transform="translate(-788.77 -321.142)" fill="#5b5583"/>
        <path id="Path_1409" data-name="Path 1409" d="M863.576,505.182a3.775,3.775,0,0,0-.894.941,7.928,7.928,0,0,1-3.552,2.533c.784.565,1.5,1.121,2.235,1.694a97.941,97.941,0,0,1,14.9,14.249c.494-1.764,3.45-1.639,4.172-3.325a3.256,3.256,0,0,0,.157-1.506,45.934,45.934,0,0,0-1.129-7.842,8.879,8.879,0,0,0-1.568-3.67,9.411,9.411,0,0,0-4.439-2.509C870.987,504.884,866.086,503.669,863.576,505.182Z" transform="translate(-787.48 -340.691)" fill="#323444"/>
        <path id="Path_1410" data-name="Path 1410" d="M848.81,512.55c-2.353,1.741-4.415,3.921-7.058,5.113-1.866.847-3.992,1.216-5.623,2.478a5.587,5.587,0,0,0,5.333,2.886,12.672,12.672,0,0,0,5.968-2.188c1.4-.863,3.051-1.866,4.58-1.263.235,1.192-.784,2.313-.784,3.521a3.549,3.549,0,0,0,1.992,2.721c4.705,3.035,10.759,2.784,16.366,2.431a1.474,1.474,0,0,0,.9-.267,1.419,1.419,0,0,0,.337-1.035c.071-1.239.1-2.47.11-3.709A5.317,5.317,0,0,0,868.658,518a64,64,0,0,0-9.8-6.94C855.406,509.06,851.908,510.244,848.81,512.55Z" transform="translate(-782.516 -341.894)" fill="#fbb3b2"/>
        <path id="Path_1411" data-name="Path 1411" d="M825.243,326.1c-3.482.416-6.015,3.137-5.662,6.093s3.458,5,6.94,4.572,6.015-3.137,5.662-6.085S828.725,325.68,825.243,326.1Zm1.184,9.849c-2.949.353-5.576-1.38-5.881-3.874s1.851-4.8,4.791-5.152,5.576,1.38,5.881,3.874S829.368,335.592,826.427,335.945Z" transform="translate(-778.938 -302.186)" fill="#3c354c"/>
        <path id="Path_1412" data-name="Path 1412" d="M803.6,328.7c-3.482.416-6.015,3.137-5.662,6.085s3.458,5,6.94,4.58,6.015-3.137,5.662-6.093S807.085,328.279,803.6,328.7Zm1.184,9.842c-2.949.353-5.576-1.38-5.874-3.866s1.843-4.8,4.791-5.16,5.576,1.38,5.874,3.874S807.728,338.184,804.787,338.537Z" transform="translate(-774.268 -302.747)" fill="#3c354c"/>
        <path id="Path_1413" data-name="Path 1413" d="M663.194,259.64l7.567,1.615-.745,1.992-7.136-2.094Z" transform="translate(-646.46 -232.178)" fill="#3c354c"/>
        <path id="Path_1414" data-name="Path 1414" d="M715.149,253.18l-6.979,3.364,1.2,1.757,6.438-3.725Z" transform="translate(-656.234 -230.784)" fill="#3c354c"/>
        <path id="Path_1415" data-name="Path 1415" d="M687.31,260.885l5.309-.635-.274,1.317-4.556.306Z" transform="translate(-651.732 -232.31)" fill="#3c354c"/>
        <path id="Path_1416" data-name="Path 1416" d="M796.452,322.416a8.422,8.422,0,0,0,.784-3.427,7.323,7.323,0,0,1,.361-2.086,5.836,5.836,0,0,1,1.71-2.188,15.816,15.816,0,0,1,9.41-3.286,21.753,21.753,0,0,1,10.885,2.353,8.469,8.469,0,0,1,2.705,2.008c1.1,1.341,1.333,3.074,2.439,4.4a6.407,6.407,0,0,0,6.007,1.882c.384-1.365-.118-2.807.078-4.2a20.332,20.332,0,0,1,1.247-3.482c1.216-3.584-.557-7.74-4.211-9.881-1.278-.784-2.792-1.294-3.748-2.353a17.737,17.737,0,0,1-1.843-3.215c-1.749-2.8-6.274-4.109-9.716-2.815-1.082.408-2.039,1.027-3.137,1.466a25.862,25.862,0,0,1-6.6,1.27,20.221,20.221,0,0,0-6.4,1.678,7.166,7.166,0,0,0-4.007,4.329c-.212.847-.165,1.725-.376,2.564-1.082,4.258-8.069,6.328-8.461,10.673a6.228,6.228,0,0,0,1.78,4.352c.737.87,2.5,3.2,3.748,3.537s2.2-.847,3.388-1.255C794.374,324.149,795.511,324.024,796.452,322.416Z" transform="translate(-771.171 -295.621)" fill="#cbceda"/>
      </g>
      <path id="Path_1417" data-name="Path 1417" d="M912.81,682c0,39.4,24.718,71.283,55.262,71.283" transform="translate(-295.657 -202.857)" fill="#46455b"/>
      <path id="Path_1418" data-name="Path 1418" d="M983.28,753.073c0-39.845,27.588-72.083,61.677-72.083" transform="translate(-310.865 -202.639)" fill="#5765f1"/>
      <path id="Path_1419" data-name="Path 1419" d="M938.35,686.56c0,37.43,15.762,67.715,35.234,67.715" transform="translate(-301.168 -203.841)" fill="#5765f1"/>
      <path id="Path_1420" data-name="Path 1420" d="M983.28,747.561c0-50.91,31.885-92.112,71.283-92.112" transform="translate(-310.865 -197.127)" fill="#46455b"/>
      <ellipse id="Ellipse_68" data-name="Ellipse 68" cx="13.739" cy="2.321" rx="13.739" ry="2.321" transform="translate(656.285 559.405)" fill="#6c63ff" opacity="0.1"/>
      <path id="Path_1421" data-name="Path 1421" d="M968.46,772.385s7.842-.243,10.194-1.921,12.053-3.694,12.641-1,11.763,13.418,2.925,13.488-20.562-1.38-22.914-2.815S968.46,772.385,968.46,772.385Z" transform="translate(-307.666 -221.449)" fill="#a8a8a8"/>
      <path id="Path_1422" data-name="Path 1422" d="M994.386,783.178c-8.846.071-20.554-1.38-22.914-2.815-1.8-1.09-2.509-5.019-2.752-6.823h-.259s.494,6.321,2.854,7.756,14.068,2.886,22.914,2.815c2.556,0,3.435-.933,3.388-2.274C997.263,782.652,996.33,783.162,994.386,783.178Z" transform="translate(-307.666 -222.612)" opacity="0.2"/>
      <path id="Path_1423" data-name="Path 1423" d="M148.31,711.36c0,31.368,19.66,56.713,43.962,56.713" transform="translate(-130.673 -209.193)" fill="#46455b"/>
      <path id="Path_1424" data-name="Path 1424" d="M204.37,767.9c0-31.7,21.957-57.348,49.067-57.348" transform="translate(-142.772 -209.018)" fill="#6c63ff"/>
      <path id="Path_1425" data-name="Path 1425" d="M168.62,715c0,29.8,12.547,53.874,28.035,53.874" transform="translate(-135.056 -209.979)" fill="#5765f1"/>
      <path id="Path_1426" data-name="Path 1426" d="M204.37,763.513c0-40.5,25.369-73.283,56.713-73.283" transform="translate(-142.772 -204.633)" fill="#46455b"/>
      <ellipse id="Ellipse_69" data-name="Ellipse 69" cx="10.932" cy="1.851" rx="10.932" ry="1.851" transform="translate(48.761 566.016)" fill="#6c63ff" opacity="0.1"/>
      <path id="Path_1427" data-name="Path 1427" d="M192.58,783.25s6.234-.2,8.109-1.568,9.6-2.941,10.061-.784,9.371,10.673,2.353,10.728-16.358-1.1-18.233-2.235S192.58,783.25,192.58,783.25Z" transform="translate(-140.227 -223.97)" fill="#a8a8a8"/>
      <path id="Path_1428" data-name="Path 1428" d="M213.2,791.889c-7.058.055-16.358-1.1-18.233-2.243-1.427-.863-1.992-3.991-2.188-5.427h-.2s.392,5.027,2.266,6.172,11.2,2.29,18.233,2.235c2.031,0,2.737-.737,2.7-1.811C215.494,791.442,214.718,791.842,213.2,791.889Z" transform="translate(-140.227 -224.917)" opacity="0.2"/>
    </g>
    <g id="Group_880" data-name="Group 880" transform="translate(1702.302 496.749)">
      <ellipse id="Ellipse_31" data-name="Ellipse 31" cx="1.863" cy="2.329" rx="1.863" ry="2.329" transform="translate(0 0)" fill="#a29bfe"/>
      <ellipse id="Ellipse_32" data-name="Ellipse 32" cx="1.863" cy="2.329" rx="1.863" ry="2.329" transform="translate(0 0)" fill="#a29bfe"/>
    </g>
    <g id="Group_886" data-name="Group 886" transform="translate(1613.811 275.986)">
      <ellipse id="Ellipse_31-2" data-name="Ellipse 31" cx="2.329" cy="1.863" rx="2.329" ry="1.863" transform="translate(0 0)" fill="#a29bfe"/>
      <ellipse id="Ellipse_32-2" data-name="Ellipse 32" cx="2.329" cy="1.863" rx="2.329" ry="1.863" transform="translate(0 0)" fill="#a29bfe"/>
    </g>
    <g id="Group_883" data-name="Group 883" transform="translate(1023.247 456.695)">
      <circle id="Ellipse_31-3" data-name="Ellipse 31" cx="2.329" cy="2.329" r="2.329" transform="translate(0 0)" fill="#a29bfe"/>
      <circle id="Ellipse_32-3" data-name="Ellipse 32" cx="2.329" cy="2.329" r="2.329" transform="translate(0 0)" fill="#a29bfe"/>
    </g>
    <g id="Group_1324" data-name="Group 1324" transform="translate(1073.247 615.695)">
      <circle id="Ellipse_31-4" data-name="Ellipse 31" cx="2.329" cy="2.329" r="2.329" transform="translate(0 0)" fill="#a29bfe"/>
      <circle id="Ellipse_32-4" data-name="Ellipse 32" cx="2.329" cy="2.329" r="2.329" transform="translate(0 0)" fill="#a29bfe"/>
    </g>
    <g id="Group_1323" data-name="Group 1323" transform="translate(1277.497 403.887)">
      <path id="Path_1468" data-name="Path 1468" d="M616.948,163.221l49.059,48.447-49.059,48.446L605.91,249.075l37.1-37.1L605.6,174.566Z" transform="translate(-509.493 -163.221)" fill="#384056"/>
      <path id="Path_1469" data-name="Path 1469" d="M654.662,163.221,605.6,211.668l49.059,48.446L665.7,249.075l-37.1-37.1,37.408-37.407Z" transform="translate(-605.603 -163.221)" fill="#384056"/>
    </g>
    <circle id="Ellipse_73" data-name="Ellipse 73" cx="5.097" cy="5.097" r="5.097" transform="translate(1080.073 319.69)" fill="#f96878"/>
    <circle id="Ellipse_74" data-name="Ellipse 74" cx="5.097" cy="5.097" r="5.097" transform="translate(1099.419 319.69)" fill="#ffb74d"/>
    <circle id="Ellipse_75" data-name="Ellipse 75" cx="5.097" cy="5.097" r="5.097" transform="translate(1118.766 319.69)" fill="#6abe8e"/>
  </g>
</svg>
