<svg xmlns="http://www.w3.org/2000/svg" width="256.009" height="490.524" viewBox="0 0 256.009 490.524">
  <g id="up-arrow" transform="translate(-117.257 490.523) rotate(-90)">
    <path id="Path_1374" data-name="Path 1374" d="M487.411,355.047,252.744,120.38a10.667,10.667,0,0,0-15.083,0L2.994,355.047A10.667,10.667,0,0,0,18.077,370.13L245.192,143.015,472.307,370.151a10.667,10.667,0,0,0,15.083-15.082Z" />
    <path id="Path_1375" data-name="Path 1375" d="M479.859,373.266a10.663,10.663,0,0,1-7.552-3.115L245.192,143.015,18.077,370.151A10.667,10.667,0,0,1,2.994,355.068L237.661,120.4a10.667,10.667,0,0,1,15.083,0L487.411,355.068a10.667,10.667,0,0,1-7.552,18.2Z" />
  </g>
</svg>
