<svg xmlns="http://www.w3.org/2000/svg" width="16.054" height="16.054" viewBox="0 0 16.054 16.054">
  <path id="layers" d="M13.664,8.028l2.185-1.6a.5.5,0,0,0,0-.809L8.324.1A.5.5,0,0,0,7.73.1L.2,5.616a.5.5,0,0,0,0,.809l2.185,1.6L.2,9.63a.5.5,0,0,0,0,.809L7.73,15.957a.5.5,0,0,0,.594,0l7.525-5.518a.5.5,0,0,0,0-.809l-2.185-1.6Zm-5.637-6.9,6.677,4.9-6.677,4.9L1.35,6.021Zm0,13.806-6.677-4.9L3.238,8.65,7.73,11.944a.5.5,0,0,0,.594,0L12.815,8.65,14.7,10.034Z" transform="translate(0 -0.001)" fill="#A6AFBE"/>
</svg>
