<svg id="book" xmlns="http://www.w3.org/2000/svg" width="13.326" height="17.459" viewBox="0 0 13.326 17.459">
  <path id="Path_1331" data-name="Path 1331" d="M13.85,17.459H2.745a1.887,1.887,0,0,1-1.745-2V2A1.887,1.887,0,0,1,2.745,0h9.836a.515.515,0,0,1,.476.546V2.91h.793a.515.515,0,0,1,.476.546V16.913A.515.515,0,0,1,13.85,17.459ZM1.952,3.782V15.458a.858.858,0,0,0,.793.909H13.374V4H2.745A1.553,1.553,0,0,1,1.952,3.782Zm.793-2.691A.858.858,0,0,0,1.952,2a.858.858,0,0,0,.793.909H12.1V1.091Z" transform="translate(-1 0)" fill="#3E5481"/>
  <path id="Path_1332" data-name="Path 1332" d="M10.274,11.714a.762.762,0,0,1-.287-.054L7.91,10.8l-2.078.859a.783.783,0,0,1-.553.008A.373.373,0,0,1,5,11.348V4.75H6.091v5.942l1.532-.633a.782.782,0,0,1,.572,0l1.532.633V4.75H10.82v6.6a.373.373,0,0,1-.279.32A.771.771,0,0,1,10.274,11.714Z" transform="translate(-2.69 -1.295)" fill="#3E5481"/>
</svg>
