<svg id="ribbon" xmlns="http://www.w3.org/2000/svg" width="13.536" height="18.673" viewBox="0 0 13.536 18.673">
  <path id="Path_1333" data-name="Path 1333" d="M7.163,0A6.765,6.765,0,0,0,2.842,11.973l-.333,6v.017a.674.674,0,0,0,1.116.517L7.163,15.46,10.7,18.507a.668.668,0,0,0,1.108-.517v-.009l-.328-6.009A6.763,6.763,0,0,0,7.163,0Zm3.756,17.54L7.622,14.7a.656.656,0,0,0-.911,0l-3.3,2.841L3.7,12.577a6.749,6.749,0,0,0,6.934,0ZM7.163,12.661a5.893,5.893,0,1,1,5.892-5.892A5.9,5.9,0,0,1,7.163,12.661Zm0,0" transform="translate(-0.394 0)" fill="#03015b"/>
  <path id="Path_1334" data-name="Path 1334" d="M53.637,48.6a4.64,4.64,0,1,0,4.64,4.64A4.64,4.64,0,0,0,53.637,48.6Zm0,8.405A3.765,3.765,0,1,1,57.4,53.242,3.765,3.765,0,0,1,53.637,57.007Zm0,0" transform="translate(-46.868 -46.474)" fill="#03015b"/>
  <path id="Path_1335" data-name="Path 1335" d="M121.05,119.1a1.554,1.554,0,1,0,1.554,1.554A1.554,1.554,0,0,0,121.05,119.1Zm0,2.233a.679.679,0,1,1,.679-.679A.679.679,0,0,1,121.05,121.334Zm0,0" transform="translate(-114.282 -113.888)" fill="#03015b"/>
</svg>
