<svg id="priority" xmlns="http://www.w3.org/2000/svg" width="16.055" height="16.055" viewBox="0 0 16.055 16.055">
  <g id="Group_1316" data-name="Group 1316" transform="translate(0 0)">
    <path id="Path_1372" data-name="Path 1372" d="M8.028,16.055a1.331,1.331,0,0,1-.947-.392L.392,8.975a1.34,1.34,0,0,1,0-1.895L7.08.392a1.34,1.34,0,0,1,1.895,0L15.663,7.08a1.34,1.34,0,0,1,0,1.895L8.975,15.663a1.331,1.331,0,0,1-.947.392Zm0-15.114a.4.4,0,0,0-.282.117L1.058,7.745a.4.4,0,0,0,0,.564L7.745,15a.4.4,0,0,0,.564,0L15,8.31a.4.4,0,0,0,0-.564L8.31,1.058A.4.4,0,0,0,8.028.941Z" transform="translate(0 0)" fill="#A6AFBE"/>
  </g>
  <g id="Group_1317" data-name="Group 1317" transform="translate(1.96 1.96)">
    <path id="Path_1373" data-name="Path 1373" d="M66.947,71.382l-4.435-4.435,4.435-4.435,4.435,4.435Zm-3.462-4.435,3.462,3.462,3.462-3.462-3.462-3.462Z" transform="translate(-60.761 -60.761)" fill="#A6AFBE"/>
  </g>
</svg>
