<svg id="remove" xmlns="http://www.w3.org/2000/svg" width="15.3" height="15.3" viewBox="0 0 15.3 15.3">
  <path id="Path_326" data-name="Path 326" d="M7.65,15.3A7.65,7.65,0,1,1,15.3,7.65,7.658,7.658,0,0,1,7.65,15.3ZM7.65.956A6.694,6.694,0,1,0,14.344,7.65,6.7,6.7,0,0,0,7.65.956Zm0,0" fill="#ef7e88"/>
  <path id="Path_327" data-name="Path 327" d="M161.289,166.394a.472.472,0,0,1-.334-.807l4.675-4.676a.472.472,0,0,1,.668.668l-4.676,4.675A.473.473,0,0,1,161.289,166.394Zm0,0" transform="translate(-155.976 -155.934)" fill="#ef7e88"/>
  <path id="Path_328" data-name="Path 328" d="M165.942,166.414a.468.468,0,0,1-.334-.138l-4.675-4.675a.472.472,0,1,1,.668-.668l4.675,4.675a.472.472,0,0,1-.334.806Zm0,0" transform="translate(-155.954 -155.954)" fill="#ef7e88"/>
</svg>
