<svg xmlns="http://www.w3.org/2000/svg" width="16.662" height="12.677" viewBox="0 0 16.662 12.677">
  <g id="terminal" transform="translate(0 -61.217)">
    <g id="Group_1278" data-name="Group 1278" transform="translate(0 61.217)">
      <g id="Group_1277" data-name="Group 1277" transform="translate(0 0)">
        <path id="Path_1350" data-name="Path 1350" d="M16.118,61.217H.543A.543.543,0,0,0,0,61.76V73.351a.543.543,0,0,0,.543.543H16.118a.543.543,0,0,0,.543-.543V61.76A.543.543,0,0,0,16.118,61.217Zm-.543,11.591H1.087V65.552H15.575v7.256Zm0-8.342H1.087V62.3H15.575v2.162Z" transform="translate(0 -61.217)" fill="#b2489e"/>
      </g>
    </g>
    <g id="Group_1280" data-name="Group 1280" transform="translate(13.71 62.585)">
      <g id="Group_1279" data-name="Group 1279" transform="translate(0 0)">
        <path id="Path_1351" data-name="Path 1351" d="M422.031,103.247a.724.724,0,1,0,.724.724A.725.725,0,0,0,422.031,103.247Z" transform="translate(-421.307 -103.247)" fill="#b2489e"/>
      </g>
    </g>
    <g id="Group_1282" data-name="Group 1282" transform="translate(11.737 62.585)">
      <g id="Group_1281" data-name="Group 1281" transform="translate(0 0)">
        <path id="Path_1352" data-name="Path 1352" d="M361.389,103.247a.724.724,0,1,0,.724.724A.725.725,0,0,0,361.389,103.247Z" transform="translate(-360.665 -103.247)" fill="#b2489e"/>
      </g>
    </g>
    <g id="Group_1284" data-name="Group 1284" transform="translate(9.763 62.585)">
      <g id="Group_1283" data-name="Group 1283" transform="translate(0 0)">
        <path id="Path_1353" data-name="Path 1353" d="M300.748,103.247a.724.724,0,1,0,.724.724A.725.725,0,0,0,300.748,103.247Z" transform="translate(-300.024 -103.247)" fill="#b2489e"/>
      </g>
    </g>
    <g id="Group_1286" data-name="Group 1286" transform="translate(4.988 67.123)">
      <g id="Group_1285" data-name="Group 1285">
        <path id="Path_1354" data-name="Path 1354" d="M155.955,244.351l-1.779-1.513a.543.543,0,1,0-.7.828l1.292,1.1-1.292,1.1a.543.543,0,1,0,.7.828l1.779-1.513A.544.544,0,0,0,155.955,244.351Z" transform="translate(-153.281 -242.708)" fill="#b2489e"/>
      </g>
    </g>
    <g id="Group_1288" data-name="Group 1288" transform="translate(8.441 70.15)">
      <g id="Group_1287" data-name="Group 1287" transform="translate(0 0)">
        <path id="Path_1355" data-name="Path 1355" d="M262.062,335.716h-2.146a.543.543,0,0,0,0,1.087h2.146a.543.543,0,1,0,0-1.087Z" transform="translate(-259.372 -335.716)" fill="#b2489e"/>
      </g>
    </g>
  </g>
</svg>
